<svg width="100%" 
    height="100%" 
    viewBox="0 0 3583 3574" 
    version="1.1" 
    xmlns="http://www.w3.org/2000/svg" 
    xmlns:xlink="http://www.w3.org/1999/xlink" 
    xml:space="preserve" 
    xmlns:serif="http://www.serif.com/" 
    style="fill-rule:evenodd;clip-rule:evenodd;stroke-linecap:round;stroke-linejoin:round;stroke-miterlimit:1.5;"
    >
    <g>
        <path d="M1953.32,106.32c-59.068,-59.068 -154.979,-59.068 -214.047,-0l-214.047,214.047c-59.067,59.067 -59.067,154.979 0,214.046l1573.36,1573.36c59.068,59.067 154.98,59.067 214.047,-0l214.047,-214.047c59.068,-59.068 59.068,-154.979 0,-214.047l-1573.36,-1573.36Z" style="fill:#fff;stroke:#000;stroke-opacity:0;stroke-width:3.12px;"/>
        <path d="M1523.33,3042.07c-59.068,59.068 -59.134,154.912 -0.149,213.898l213.75,213.75c58.986,58.985 154.83,58.919 213.898,-0.149l1575.85,-1575.85c59.068,-59.068 59.135,-154.913 0.149,-213.898l-213.75,-213.75c-58.985,-58.986 -154.83,-58.919 -213.898,0.149l-1575.85,1575.85Z" style="fill:#fff;stroke:#000;stroke-opacity:0;stroke-width:3.12px;"/>
        <path d="M2677.62,1684.87c-0,-0 111.107,92.641 -0.142,204.119l101.643,-101.643l-101.501,-102.476Z" style="fill:#fff;"/>
    </g>
    <g>
        <g>
            <path d="M1105.94,2931.18c56.567,56.567 148.417,56.567 204.984,-0l204.983,-204.984c56.567,-56.566 56.567,-148.416 0,-204.983l-1050.93,-1050.93c-56.567,-56.567 -148.417,-56.567 -204.984,0l-204.984,204.984c-56.566,56.567 -56.566,148.417 0,204.983l1050.93,1050.93Z" style="fill:#00e165;"/>
            <path d="M1522.68,1043.33c40.445,-40.445 26.471,-120.091 -31.186,-177.748l-208.935,-208.934c-57.657,-57.657 -137.303,-71.631 -177.748,-31.187l-1079.01,1079.01c-40.445,40.445 -26.471,120.092 31.186,177.749l208.934,208.934c57.657,57.657 137.304,71.631 177.749,31.186l1079.01,-1079.01Z" style="fill:#00e165;"/>
        </g>
        <path d="M878.592,1885.76c0,0 -108.421,-90.737 -1.885,-197.497l-97.339,97.339l99.224,100.158Z" style="fill:#00e165;"/>
    </g>
    <path d="M1442.43,1615.19l-0,-217.844l110.456,-0l-0,217.844l104.319,-0l0,95.728l-104.319,0l-0,465.143l-110.456,-0l-0,-465.143l-104.32,0l0,-95.728l104.32,-0Z" style="fill:#fff;fill-rule:nonzero;"/>
    <path d="M2243.26,1615.19l-250.367,560.871l-69.956,-0l-247.912,-560.871l122.115,-0l160.775,373.709l163.23,-373.709l122.115,-0Z" style="fill:#00e165;fill-rule:nonzero;"/>
</svg>